<svg width="45" height="45" viewBox="0 0 45 45" fill="none" xmlns="http://www.w3.org/2000/svg">
<path d="M33.5593 20.7214V11.8267C33.5593 10.8831 33.1709 9.97811 32.4795 9.31088C31.7881 8.64365 30.8503 8.26881 29.8725 8.26881C28.8947 8.26881 27.957 8.64365 27.2656 9.31088C26.5741 9.97811 26.1857 10.8831 26.1857 11.8267M26.1857 18.9424V8.26881C26.1857 7.3252 25.7973 6.42024 25.1059 5.75301C24.4145 5.08578 23.4767 4.71094 22.4989 4.71094C21.5211 4.71094 20.5833 5.08578 19.8919 5.75301C19.2005 6.42024 18.8121 7.3252 18.8121 8.26881V11.8267M18.8121 11.8267V19.8319M18.8121 11.8267C18.8121 10.8831 18.4237 9.97811 17.7323 9.31088C17.0408 8.64365 16.1031 8.26881 15.1253 8.26881C14.1475 8.26881 13.2097 8.64365 12.5183 9.31088C11.8269 9.97811 11.4385 10.8831 11.4385 11.8267V26.0582" stroke="#E8628C" stroke-width="3.5" stroke-linecap="round" stroke-linejoin="round"/>
<path d="M33.5592 15.384C33.5592 14.4404 33.9476 13.5355 34.639 12.8682C35.3304 12.201 36.2682 11.8262 37.246 11.8262C38.2238 11.8262 39.1616 12.201 39.853 12.8682C40.5444 13.5355 40.9328 14.4404 40.9328 15.384V26.0576C40.9328 29.8321 39.3791 33.4519 36.6135 36.1208C33.8478 38.7897 30.0968 40.2891 26.1856 40.2891H22.4988C17.3372 40.2891 14.2035 38.7592 11.4568 36.1264L4.82052 29.7223C4.18627 29.0444 3.84645 28.1571 3.8714 27.2441C3.89635 26.3311 4.28418 25.4623 4.95458 24.8177C5.62498 24.173 6.5266 23.8018 7.47276 23.781C8.41893 23.7601 9.33717 24.0912 10.0374 24.7057L13.2818 27.8366" stroke="#E8628C" stroke-width="3.5" stroke-linecap="round" stroke-linejoin="round"/>
</svg>
