<svg width="50" height="50" viewBox="0 0 50 50" fill="none" xmlns="http://www.w3.org/2000/svg">
<path d="M18.75 12.5812V41.4583M31.25 5V34.1667M6.25 16.8958C6.25 13.825 6.25 12.2917 7.06875 11.3958C7.35851 11.0771 7.71103 10.8218 8.10417 10.6458C9.2125 10.1542 10.6687 10.6396 13.5812 11.6104C15.8042 12.3521 16.9146 12.7229 18.0396 12.6833C18.4523 12.6698 18.8626 12.6153 19.2646 12.5208C20.3583 12.2604 21.3333 11.6104 23.2833 10.3125L26.1625 8.39167C28.6625 6.725 29.9104 5.89167 31.3437 5.70208C32.7771 5.50833 34.2021 5.98333 37.05 6.93333L39.4771 7.74167C41.5396 8.42917 42.5708 8.77292 43.1604 9.59167C43.75 10.4104 43.75 11.5 43.75 13.6708V30.6062C43.75 33.675 43.75 35.2104 42.9312 36.1062C42.6411 36.4234 42.2886 36.6773 41.8958 36.8521C40.7875 37.3458 39.3313 36.8604 36.4188 35.8896C34.1958 35.1479 33.0854 34.7771 31.9604 34.8167C31.5477 34.8302 31.1374 34.8847 30.7354 34.9792C29.6417 35.2396 28.6667 35.8896 26.7167 37.1875L23.8375 39.1083C21.3375 40.775 20.0896 41.6083 18.6562 41.7979C17.2229 41.9917 15.7979 41.5167 12.95 40.5667L10.5229 39.7583C8.46042 39.0708 7.42917 38.7271 6.83958 37.9083C6.25 37.0896 6.25 36 6.25 33.8292V16.8958Z" stroke="#E8628C" stroke-width="3.75"/>
</svg>
